<svg width="1049" height="526" viewBox="0 0 1049 526" fill="none" xmlns="http://www.w3.org/2000/svg">
<path d="M754.145 304L1008.88 470.105H499.408L754.145 304Z" fill="white"/>
<g clip-path="url(#clip0_14_224)">
<path d="M2155.92 -514.116H-1069.32V983.348H2155.92V-514.116Z" fill="#B22234"/>
<rect x="134" y="-9" width="378" height="94" fill="white"/>
<rect x="134" y="141" width="378" height="94" fill="white"/>
<rect y="292" width="400" height="94" fill="white"/>
<path d="M220.779 -514.116H-1069.32V292.211H220.779V-514.116Z" fill="#3C3B6E"/>
<path d="M5.7631 84.8699L36.4635 168.222L-43.9111 116.707H55.4373L-24.9373 168.222L5.7631 84.8699Z" fill="white"/>
<path d="M113.271 4.23718L143.971 87.5891L63.5967 36.0748H162.945L82.5705 87.5891L113.271 4.23718Z" fill="white"/>
<path d="M113.271 165.502L143.971 248.854L63.5967 197.34H162.945L82.5705 248.854L113.271 165.502Z" fill="white"/>
</g>
<g clip-path="url(#clip1_14_224)">
<path d="M401.5 104.741C401.5 46.6077 401.5 70.5 401.5 0C491.246 0 571.647 46.6077 571.647 104.741C571.647 162.874 491.246 208 401.5 208C401.5 104.741 401.5 162.874 401.5 104.741Z" fill="#090000"/>
<path d="M970.976 -50.2722H369.609V234.822H970.976V-50.2722Z" fill="white"/>
<path d="M884.416 234.822H369.609V524.441H884.416V234.822Z" fill="#B22234"/>
<path d="M896.945 176.667H369.609V295.228H956.17L896.945 176.667Z" fill="#3C3B6E"/>
</g>
<rect width="21" height="470" transform="matrix(1 0 0 -1 381 471)" fill="black"/>
<defs>
<clipPath id="clip0_14_224">
<path d="M0.0788574 99.9999C0.0788574 44.7715 44.8504 0 100.079 0H380.737V470.632H100.079C44.8503 470.632 0.0788574 425.86 0.0788574 370.632V99.9999Z" fill="white"/>
</clipPath>
<clipPath id="clip1_14_224">
<path d="M401.5 0H689.079C744.307 0 789.079 44.7715 789.079 100V370.632C789.079 425.86 744.307 470.632 689.079 470.632H401.5V0Z" fill="white"/>
</clipPath>
</defs>
</svg>
